# xmcd
#
# Track frame offsets: 
#        150
#        15539
#        32625
#        44242
#        59010
#        72818
#        91080
#        107598
#        124966
#        140785
#        152147
#        163907
#        178690
#        188448
#        207810
#
# Disc length: 3212 seconds
#
# Revision: 3
# Processed by: cddbd v1.5.2PL0 Copyright (c) Steve Scherf et al.
# Submitted via: ExactAudioCopy v0.95b4
#
DISCID=d50c8a0f
DTITLE=Billy Joe Shaver - Freedom's Child
DYEAR=2002
DGENRE=Country
TTITLE0=Hold On To Yours (And I'll Hold On To Mine)
TTITLE1=Freedom's Child
TTITLE2=That's Why The Man In Black Sings The Blues
TTITLE3=Honey Chile
TTITLE4=Good Ol' U.S.A.
TTITLE5=Day By Day
TTITLE6=Corsicana Daily Sun
TTITLE7=That's What She Said Last Night
TTITLE8=Drinkin' Back
TTITLE9=We
TTITLE10=Wild Cow Gravy
TTITLE11=Déja Blues (Feat. Todd Snider)
TTITLE12=Magnolia Mother's Love
TTITLE13=Merry Christmas To You
TTITLE14=Necessary Evil (Eddy Shaver)
EXTD=
EXTT0=
EXTT1=
EXTT2=
EXTT3=
EXTT4=
EXTT5=
EXTT6=
EXTT7=
EXTT8=
EXTT9=
EXTT10=
EXTT11=
EXTT12=
EXTT13=Bonus track
EXTT14=
PLAYORDER=
